# xmcd
#
# Track frame offsets: 
#        150
#        31165
#        42060
#        60664
#
# Disc length: 1046 seconds
#
# Revision: 0
# Processed by: cddbd v1.5.2PL0 Copyright (c) Steve Scherf et al.
# Submitted via: ExactAudioCopy v1.3
#
DISCID=27041404
DTITLE=Penhale and Flaskett - Penhale and Flaskett
DYEAR=1900
DGENRE=
TTITLE0=Catch That Train
TTITLE1=Marcy
TTITLE2=Hound Dog - Delabole Rag
TTITLE3=Will You Still Love Me Tomorrow?
EXTD=
EXTT0=
EXTT1=
EXTT2=
EXTT3=
PLAYORDER=
